# xmcd
#
# Track frame offsets:
#	150
#	12758
#	26059
#	46599
#	60402
#	70054
#	82628
#	98495
#	109807
#	122614
#	138962
#	149274
#	161474
#	172175
#	183858
#	197433
#	210161
#	221564
#	234014
#	243445
#
# Disc length: 3325 seconds
#
# Revision: 3
# Processed by: cddbd v1.5.2PL0 Copyright (c) Steve Scherf et al.
# Submitted via: EZCDAudioConverter 2.1.7.1
#
DISCID=f20cfb14
DTITLE=V/A - Bubblepop
DYEAR=2005
DGENRE=
TTITLE0=Jonathan King - The Kung Fu Anthem
TTITLE1=Ricky Wilde - Teen Wave
TTITLE2=Del - Motorbike Annie
TTITLE3=Redhead - We Ran And We Ran
TTITLE4=Bunk Dogger - Red Alert
TTITLE5=Sparky - (Do You Remember) That Summertime Woman
TTITLE6=Bubblerock - Satisfaction
TTITLE7=Simon Turner - Shoeshine Boy
TTITLE8=Ricky Wilde - Hertfordshire Rock
TTITLE9=Clive Kennedy - The Late Late Show
TTITLE10=Tibble - We Went For A Drive
TTITLE11=Flannelcat - Rubatummy
TTITLE12=Big Pig with Little Porker - Baby Reggae
TTITLE13=Ricky Wilde - I Am An Astronaut
TTITLE14=Brendon - A Life In England
TTITLE15=Del - Gypsy Girl
TTITLE16=Tractor - Vicious Circle
TTITLE17=Sparky - You Gotta Have It Sometime
TTITLE18=Sound 9418 - Sex Appeal
TTITLE19=Shag - Clap And Shout
EXTD=
EXTT0=
EXTT1=
EXTT2=
EXTT3=
EXTT4=
EXTT5=
EXTT6=
EXTT7=
EXTT8=
EXTT9=
EXTT10=
EXTT11=
EXTT12=
EXTT13=
EXTT14=
EXTT15=
EXTT16=
EXTT17=
EXTT18=
EXTT19=
PLAYORDER=
